<?xml version="1.0" standalone="no"?>
<!DOCTYPE svg PUBLIC "-//W3C//DTD SVG 1.1//EN" "http://www.w3.org/Graphics/SVG/1.1/DTD/svg11.dtd" >
<svg xmlns="http://www.w3.org/2000/svg">
<metadata>Generated by IcoMoon</metadata>
<defs>
<font id="core-icons" horiz-adv-x="1024">
<font-face units-per-em="1024" ascent="960" descent="-64" />
<missing-glyph horiz-adv-x="1024" />
<glyph unicode="&#x20;" horiz-adv-x="512" d="" />
<glyph unicode="&#xe900;" glyph-name="arrow-down" d="M508.442 69.44l296.784 296.784-60.339 60.342-193.779-193.782v572.552h-85.334v-572.546l-193.775 193.776-60.34-60.342 296.783-296.784z" />
<glyph unicode="&#xe901;" glyph-name="arrow-external" d="M768.621 697.569h-419.715v-85.335l274.045 0.003-404.854-404.858 60.34-60.339 404.851 404.851v-274.038h85.334v419.716z" />
<glyph unicode="&#xe902;" glyph-name="arrow-left" d="M110.324 467.558l296.783-296.784 60.339 60.339-193.773 193.776h572.545v85.331h-572.55l193.782 193.781-60.342 60.34-296.783-296.783z" />
<glyph unicode="&#xe903;" glyph-name="arrow-right" d="M906.56 467.552l-296.784 296.784-60.339-60.34 193.779-193.779h-572.548v-85.331h572.548l-193.779-193.779 60.339-60.339 296.784 296.784z" />
<glyph unicode="&#xe904;" glyph-name="arrow-up" d="M508.442 865.676l-296.785-296.783 60.34-60.339 193.78 193.779v-572.55h85.334v572.545l193.776-193.774 60.339 60.339-296.784 296.783z" />
<glyph unicode="&#xe905;" glyph-name="check" d="M796.336 608.003l-380.339-380.339-188.34 188.339 60.34 60.339 128.001-128 320 320.001 60.339-60.34z" />
<glyph unicode="&#xe906;" glyph-name="chevron-down" d="M892.342 608.003l-380.339-380.339-380.339 380.339 60.34 60.34 319.999-320.001 320 320.001 60.339-60.34z" />
<glyph unicode="&#xe907;" glyph-name="chevron-left" d="M671.997 67.658l-380.34 380.339 380.34 380.339 60.339-60.34-320-319.999 320-320-60.339-60.339z" />
<glyph unicode="&#xe908;" glyph-name="chevron-right" d="M352.003 828.344l380.339-380.34-380.339-380.339-60.339 60.339 320 320-320 320.001 60.339 60.34z" />
<glyph unicode="&#xe909;" glyph-name="chevron-up" d="M131.656 287.997l380.34 380.339 380.339-380.339-60.339-60.339-320 320-320.001-320-60.34 60.339z" />
<glyph unicode="&#xe90a;" glyph-name="close" d="M572.339 448.003l224 224.001-60.339 60.34-224-224.001-224 224.001-60.34-60.34 224.001-224.001-224.001-224 60.34-60.339 224 224 224-224 60.339 60.339-224 224z" />
<glyph unicode="&#xe90b;" glyph-name="menu" d="M906.666 650.664h-789.333v-85.333h789.333v85.333zM906.666 330.666h-789.333v-85.334h789.333v85.334z" />
<glyph unicode="&#xe90c;" glyph-name="more-stack" d="M448 448c0-35.347 28.653-64 64-64s64 28.653 64 64c0 35.347-28.653 64-64 64s-64-28.653-64-64zM448 736c0-35.346 28.653-64 64-64s64 28.654 64 64c0 35.346-28.653 64-64 64s-64-28.654-64-64zM448 160c0-35.347 28.653-64 64-64s64 28.653 64 64c0 35.347-28.653 64-64 64s-64-28.653-64-64z" />
<glyph unicode="&#xe90d;" glyph-name="more-wide" d="M512 384c35.347 0 64 28.653 64 64s-28.653 64-64 64c-35.347 0-64-28.653-64-64s28.653-64 64-64zM224 384c35.346 0 64 28.653 64 64s-28.654 64-64 64c-35.346 0-64-28.653-64-64s28.654-64 64-64zM800 384c35.347 0 64 28.653 64 64s-28.653 64-64 64c-35.347 0-64-28.653-64-64s28.653-64 64-64z" />
<glyph unicode="&#xe90e;" glyph-name="pause" d="M288 704v-512h96v512h-96zM608 704v-512h96v512h-96z" />
<glyph unicode="&#xe90f;" glyph-name="play-outline" d="M309.332 821.336l497.778-373.333-497.778-373.334v746.667zM394.666 650.669v-405.335l270.221 202.669-270.221 202.666z" />
<glyph unicode="&#xe910;" glyph-name="play-solid" d="M789.334 448l-469.334 352v-704l469.334 352z" />
<glyph unicode="&#xe911;" glyph-name="plus" d="M554.666 490.666v316.785h-85.331v-316.785h-316.785v-85.331h316.785v-316.784h85.331v316.784h316.784v85.331h-316.784z" />
<glyph unicode="&#xe912;" glyph-name="search" d="M234.665 511.997c0-117.821 95.514-213.331 213.335-213.331 57.482 0 109.654 22.733 148.016 59.702l5.613 5.613c36.97 38.362 59.702 90.534 59.702 148.016 0 117.821-95.51 213.334-213.331 213.334s-213.335-95.513-213.335-213.334zM626.861 272.79c-49.859-37.341-111.776-59.459-178.861-59.459-164.95 0-298.668 133.718-298.668 298.666 0 164.95 133.717 298.667 298.668 298.667 164.947 0 298.666-133.717 298.666-298.667 0-67.088-22.118-129.008-59.462-178.867l205.133-205.136-60.339-60.339-205.136 205.136z" />
<glyph unicode="&#xe913;" glyph-name="sound" d="M608 64v768l-298.667-224h-181.333v-320h181.333l298.667-224zM687.997 608.454l22.627-22.627c76.496-76.496 76.496-195.958 0-272.454l-22.627-22.627-45.254 45.254 22.627 22.627c51.504 51.504 51.504 130.442 0 181.946l-22.627 22.627 45.254 45.254zM803.427 672.225l-22.627 22.628-45.254-45.255 22.627-22.628c99.504-99.504 99.504-261.642 0-361.146l-22.627-22.627 45.254-45.254 22.627 22.627c124.496 124.496 124.496 327.158 0 451.655z" />
<glyph unicode="&#xe914;" glyph-name="gallery" horiz-adv-x="970" d="M929.684 933.053h-565.895c-10.72 0-21.002-4.259-28.582-11.839s-11.839-17.862-11.839-28.582v-40.421h525.474c10.72 0 21.003-4.259 28.58-11.839 7.583-7.58 11.841-17.862 11.841-28.582v-525.474h40.421c10.72 0 21.003 4.258 28.58 11.841 7.583 7.578 11.841 17.861 11.841 28.58v565.895c0 10.72-4.258 21.002-11.841 28.582-7.578 7.58-17.861 11.839-28.58 11.839zM768 771.368h-565.895c-10.72 0-21.002-4.259-28.582-11.839s-11.839-17.862-11.839-28.582v-40.421h525.474c10.72 0 21.003-4.259 28.58-11.839 7.583-7.58 11.841-17.862 11.841-28.582v-525.474h40.421c10.72 0 21.003 4.258 28.58 11.841 7.583 7.578 11.841 17.861 11.841 28.58v565.895c0 10.72-4.258 21.002-11.841 28.582-7.578 7.58-17.861 11.839-28.58 11.839zM11.839 597.845c7.58 7.58 17.862 11.839 28.582 11.839h565.895c10.72 0 21.003-4.259 28.58-11.839 7.583-7.58 11.841-17.862 11.841-28.582v-565.895c0-10.72-4.258-21.003-11.841-28.58-7.578-7.583-17.861-11.841-28.58-11.841h-565.895c-10.72 0-21.002 4.258-28.582 11.841-7.58 7.578-11.839 17.861-11.839 28.58v565.895c0 10.72 4.259 21.002 11.839 28.582z" />
<glyph unicode="&#xe915;" glyph-name="trending" d="M613.578 608l63.725-65.952-135.795-140.544-111.309 115.2-206.198-213.696 39.236-40.608 166.962 172.8 111.309-115.2 175.309 181.152 63.725-65.952v172.8h-166.963z" />
<glyph unicode="&#xe916;" glyph-name="link" d="M392.491 358.443c42.325-56.619 103.68-90.709 168.448-100.053s133.248 6.059 189.867 48.384c10.197 7.637 19.84 16 27.947 24.235l127.787 127.787c49.621 51.371 73.472 117.376 72.363 182.827s-27.264 130.603-78.123 179.669c-50.005 48.299-114.688 72.192-179.157 71.808-63.659-0.341-127.317-24.363-176.512-71.808l-73.856-73.429c-16.725-16.597-16.811-43.648-0.171-60.331s43.648-16.811 60.331-0.171l72.917 72.491c32.853 31.659 75.221 47.659 117.76 47.915 43.051 0.256 86.016-15.659 119.381-47.872 33.92-32.768 51.328-76.075 52.096-119.808s-15.147-87.637-47.36-121.003l-128.213-128.213c-4.864-4.949-11.221-10.539-18.261-15.787-37.76-28.245-83.285-38.485-126.592-32.256s-84.096 28.928-112.299 66.688c-14.123 18.859-40.832 22.741-59.733 8.619s-22.741-40.832-8.619-59.733zM631.509 494.891c-42.325 56.619-103.68 90.709-168.448 100.053s-133.291-6.059-189.909-48.384c-10.197-7.637-19.797-16-27.947-24.235l-127.787-127.787c-49.621-51.371-73.472-117.376-72.363-182.827s27.264-130.603 78.123-179.669c50.005-48.299 114.688-72.192 179.157-71.808 63.659 0.341 127.317 24.363 176.512 71.808l73.515 73.515c16.683 16.683 16.683 43.691 0 60.331s-43.691 16.683-60.331 0l-72.363-72.448c-32.853-31.659-75.221-47.659-117.76-47.915-43.051-0.256-86.016 15.659-119.381 47.872-33.92 32.768-51.328 76.075-52.096 119.808s15.147 87.637 47.36 121.003l128.213 128.213c4.864 4.949 11.221 10.539 18.261 15.787 37.76 28.245 83.285 38.485 126.592 32.256s84.096-28.928 112.299-66.688c14.123-18.859 40.832-22.741 59.733-8.619s22.741 40.832 8.619 59.733z" />
<glyph unicode="&#xf003;" glyph-name="envelope" d="M950.857 91.428v438.857c-12-13.714-25.143-26.286-39.429-37.714-81.714-62.857-164-126.857-243.429-193.143-42.857-36-96-80-155.429-80h-1.143c-59.429 0-112.571 44-155.429 80-79.429 66.286-161.714 130.286-243.429 193.143-14.286 11.429-27.429 24-39.429 37.714v-438.857c0-9.714 8.571-18.286 18.286-18.286h841.143c9.714 0 18.286 8.571 18.286 18.286zM950.857 692c0 14.286 3.429 39.429-18.286 39.429h-841.143c-9.714 0-18.286-8.571-18.286-18.286 0-65.143 32.571-121.714 84-162.286 76.571-60 153.143-120.571 229.143-181.143 30.286-24.571 85.143-77.143 125.143-77.143h1.143c40 0 94.857 52.571 125.143 77.143 76 60.571 152.571 121.143 229.143 181.143 37.143 29.143 84 92.571 84 141.143zM1024 713.143v-621.714c0-50.286-41.143-91.429-91.429-91.429h-841.143c-50.286 0-91.429 41.143-91.429 91.429v621.714c0 50.286 41.143 91.429 91.429 91.429h841.143c50.286 0 91.429-41.143 91.429-91.429z" />
<glyph unicode="&#xf099;" glyph-name="twitter" horiz-adv-x="951" d="M925.714 717.714c-25.143-36.571-56.571-69.143-92.571-95.429 0.571-8 0.571-16 0.571-24 0-244-185.714-525.143-525.143-525.143-104.571 0-201.714 30.286-283.429 82.857 14.857-1.714 29.143-2.286 44.571-2.286 86.286 0 165.714 29.143 229.143 78.857-81.143 1.714-149.143 54.857-172.571 128 11.429-1.714 22.857-2.857 34.857-2.857 16.571 0 33.143 2.286 48.571 6.286-84.571 17.143-148 91.429-148 181.143v2.286c24.571-13.714 53.143-22.286 83.429-23.429-49.714 33.143-82.286 89.714-82.286 153.714 0 34.286 9.143 65.714 25.143 93.143 90.857-112 227.429-185.143 380.571-193.143-2.857 13.714-4.571 28-4.571 42.286 0 101.714 82.286 184.571 184.571 184.571 53.143 0 101.143-22.286 134.857-58.286 41.714 8 81.714 23.429 117.143 44.571-13.714-42.857-42.857-78.857-81.143-101.714 37.143 4 73.143 14.286 106.286 28.571z" />
<glyph unicode="&#xf09a;" glyph-name="facebook" horiz-adv-x="602" d="M548 944v-150.857h-89.714c-70.286 0-83.429-33.714-83.429-82.286v-108h167.429l-22.286-169.143h-145.143v-433.714h-174.857v433.714h-145.714v169.143h145.714v124.571c0 144.571 88.571 223.429 217.714 223.429 61.714 0 114.857-4.571 130.286-6.857z" />
<glyph unicode="&#xf0e1;" glyph-name="linkedin" horiz-adv-x="878" d="M199.429 593.714v-566.286h-188.571v566.286h188.571zM211.429 768.571c0.571-54.286-40.571-97.714-106.286-97.714v0h-1.143c-63.429 0-104 43.429-104 97.714 0 55.429 42.286 97.714 106.286 97.714 64.571 0 104.571-42.286 105.143-97.714zM877.714 352v-324.571h-188v302.857c0 76-27.429 128-95.429 128-52 0-82.857-34.857-96.571-68.571-4.571-12.571-6.286-29.143-6.286-46.286v-316h-188c2.286 513.143 0 566.286 0 566.286h188v-82.286h-1.143c24.571 38.857 69.143 95.429 170.857 95.429 124 0 216.571-81.143 216.571-254.857z" />
</font>
</defs>
</svg>
